<svg width="432" height="381" viewBox="0 0 432 381" fill="none" xmlns="http://www.w3.org/2000/svg">
<g filter="url(#filter0_d_256_561)">
<g clip-path="url(#clip0_256_561)">
<path d="M403.493 131.846C402.761 130.382 401.003 129.796 399.538 130.529C398.073 131.261 397.487 133.018 398.22 134.482C411.549 162.011 418.141 191.443 418.141 222.193C418.141 333.625 327.47 424.264 216 424.264C104.53 424.264 13.8592 333.479 13.8592 222.046C13.8592 110.614 104.53 19.975 216 19.975C239.583 19.975 262.727 24.075 284.552 31.9821L226.4 49.2607C224.789 49.7 223.91 51.3107 224.496 52.9214C224.935 54.2393 226.107 54.9714 227.279 54.9714C227.572 54.9714 227.865 54.9714 228.158 54.825L301.104 33.1535L245.882 -19.2679C244.71 -20.4393 242.806 -20.2929 241.78 -19.1215C240.608 -17.95 240.755 -16.0465 241.927 -15.0215L284.992 25.8321C262.873 18.0714 239.73 14.1178 216 14.1178C101.307 14.1178 8 107.393 8 222.046C8 336.7 101.307 429.975 216 429.975C330.693 429.975 424 336.7 424 222.046C424 190.418 417.115 160.107 403.493 131.846Z" fill="#ACFFE6"/>
<path d="M198.276 212.968C197.69 212.236 196.958 211.943 196.079 211.943H154.332C166.929 203.45 178.208 194.079 187.729 183.975C199.594 171.529 206.918 158.204 209.408 144.293C209.994 141.364 210.287 138.143 210.287 134.629C210.287 123.354 206.479 114.129 199.008 107.1C191.538 100.218 180.113 96.5571 164.586 96.5571C148.913 96.5571 134.704 101.243 122.693 110.468C110.535 119.693 102.332 133.896 98.3773 152.639C98.2309 153.518 98.3773 154.396 98.9633 155.129C99.5492 155.861 100.428 156.154 101.307 156.154H140.417C141.882 156.154 143.053 155.129 143.346 153.811C144.665 147.221 146.422 142.536 148.473 139.9C150.377 137.557 152.867 136.386 155.944 136.386C160.484 136.386 162.242 138.143 162.242 142.682C162.242 143.121 162.242 144.293 161.803 146.782C160.777 152.639 156.969 159.229 150.377 166.257C143.493 173.579 135.29 181.046 125.915 188.075C116.394 195.25 103.944 204.182 88.8562 214.725C88.2703 215.164 87.8309 215.896 87.6844 216.629L82.2647 246.939C82.1182 247.818 82.4111 248.696 82.8506 249.282C83.29 249.868 84.1689 250.307 85.0478 250.307H190.22C191.684 250.307 192.856 249.282 193.149 247.818L198.862 215.018C199.008 214.432 198.715 213.554 198.276 212.968ZM187.729 244.596H88.5633L93.1041 218.971C107.752 208.721 120.056 199.936 129.431 192.907C139.098 185.586 147.594 178.118 154.625 170.357C161.949 162.45 166.344 154.836 167.515 147.661C167.808 145.318 167.955 143.707 167.955 142.829C167.955 135.068 163.56 130.675 155.797 130.675C150.963 130.675 146.862 132.579 143.786 136.239C141.296 139.314 139.391 144 137.927 150.443H104.822C108.777 134.921 115.955 123.061 126.208 115.154C137.341 106.661 150.231 102.414 164.586 102.414C178.501 102.414 188.608 105.343 194.907 111.346C201.206 117.35 204.282 124.818 204.282 134.629C204.282 137.704 203.989 140.632 203.549 143.121C201.206 156.007 194.467 168.307 183.335 179.875C172.056 191.589 158.434 202.571 142.76 212.236C141.589 212.968 141.149 214.286 141.442 215.457C141.735 216.775 142.907 217.654 144.225 217.654H192.27L187.729 244.596Z" fill="#ACFFE6"/>
<path d="M292.755 99.3393L213.656 189.539C213.363 189.979 213.07 190.418 212.924 191.004L207.211 224.389C207.065 225.268 207.358 226.146 207.797 226.732C208.383 227.464 209.115 227.757 209.994 227.757H273.273L269.611 248.989C269.465 249.868 269.758 250.746 270.197 251.332C270.783 252.064 271.515 252.357 272.394 252.357H312.969C314.434 252.357 315.606 251.332 315.899 250.014L320 227.757H333.476C334.941 227.757 336.113 226.732 336.406 225.268L342.558 190.271C342.704 189.393 342.411 188.514 341.972 187.929C341.532 187.343 340.653 186.904 339.775 186.904H327.324L342.118 101.682C342.265 100.804 341.972 99.925 341.532 99.3393C341.093 98.7536 340.214 98.3143 339.335 98.3143H294.952C294.073 98.3143 293.194 98.7536 292.755 99.3393ZM335.673 104.171L320.879 189.393C320.732 190.271 321.025 191.15 321.465 191.736C321.904 192.321 322.783 192.761 323.662 192.761H336.113L330.986 221.9H317.51C316.045 221.9 314.873 222.925 314.58 224.243L310.479 246.5H275.763L279.425 225.268C279.572 224.389 279.279 223.511 278.839 222.925C278.253 222.193 277.521 221.9 276.642 221.9H213.363L218.344 192.761L296.124 104.171H335.673Z" fill="#ACFFE6"/>
<path d="M257.6 192.761H286.017C287.482 192.761 288.654 191.736 288.947 190.271L296.563 147.221C296.856 145.904 296.124 144.586 294.952 144C293.78 143.414 292.316 143.707 291.437 144.732L255.403 187.929C254.671 188.807 254.524 189.979 254.963 191.004C255.403 192.175 256.428 192.761 257.6 192.761ZM288.8 157.179L283.527 187.05H263.752L288.8 157.179Z" fill="#ACFFE6"/>
<path d="M119.763 333.918H132.653C134.265 333.918 135.583 332.6 135.583 330.989V278.129C135.583 276.518 134.265 275.2 132.653 275.2H119.763C118.152 275.2 116.834 276.518 116.834 278.129V295.846H102.625V278.129C102.625 276.518 101.307 275.2 99.6957 275.2H86.8056C85.1943 275.2 83.876 276.518 83.876 278.129V330.989C83.876 332.6 85.1943 333.918 86.8056 333.918H99.6957C101.307 333.918 102.625 332.6 102.625 330.989V312.1H116.834V330.989C116.834 332.6 118.152 333.918 119.763 333.918ZM99.6957 306.243C98.0844 306.243 96.7661 307.561 96.7661 309.171V328.061H89.7351V281.057H96.7661V298.775C96.7661 300.386 98.0844 301.704 99.6957 301.704H119.763C121.375 301.704 122.693 300.386 122.693 298.775V281.057H129.724V328.061H122.693V309.171C122.693 307.561 121.375 306.243 119.763 306.243H99.6957Z" fill="#ACFFE6"/>
<path d="M182.017 278.275C177.476 275.786 172.349 274.468 166.93 274.468C161.51 274.468 156.383 275.786 151.842 278.275C147.301 280.764 143.639 284.425 140.856 288.964C138.22 293.503 136.755 298.775 136.755 304.339C136.755 310.05 138.073 315.175 140.856 319.861C143.493 324.4 147.301 328.061 151.842 330.55C156.383 333.039 161.51 334.357 166.93 334.357C172.349 334.357 177.476 333.039 182.017 330.55C186.558 328.061 190.22 324.4 192.856 319.861C195.493 315.321 196.811 310.05 196.811 304.486C196.811 298.775 195.493 293.65 192.856 289.111C190.22 284.425 186.558 280.764 182.017 278.275ZM187.73 316.786C185.532 320.446 182.603 323.375 179.087 325.425C175.425 327.475 171.324 328.5 166.93 328.5C162.535 328.5 158.434 327.475 154.625 325.425C150.963 323.375 148.034 320.446 145.837 316.786C143.639 313.125 142.614 308.878 142.614 304.339C142.614 299.653 143.639 295.553 145.837 291.893C148.034 288.232 150.963 285.303 154.625 283.253C158.287 281.203 162.389 280.178 166.93 280.178C171.47 280.178 175.425 281.203 179.234 283.253C182.896 285.303 185.825 288.232 187.876 291.746C189.927 295.407 191.099 299.653 191.099 304.193C191.099 308.732 189.927 313.125 187.73 316.786Z" fill="#ACFFE6"/>
<path d="M166.93 286.036C161.803 286.036 157.701 287.793 154.625 291.161C151.549 294.529 150.084 298.921 150.084 304.339C150.084 309.757 151.549 314.15 154.625 317.518C157.701 320.886 161.949 322.643 166.93 322.643C172.056 322.643 176.158 320.886 179.234 317.518C182.31 314.15 183.775 309.757 183.775 304.486C183.775 299.068 182.31 294.675 179.234 291.307C176.011 287.793 171.91 286.036 166.93 286.036ZM174.839 313.564C172.935 315.761 170.299 316.786 166.93 316.786C163.561 316.786 160.924 315.761 158.873 313.564C156.823 311.368 155.797 308.293 155.797 304.339C155.797 300.386 156.823 297.311 158.873 295.114C160.777 292.918 163.414 291.893 166.93 291.893C170.299 291.893 172.935 292.918 174.839 295.114C176.89 297.311 177.915 300.386 177.915 304.339C177.915 308.293 176.89 311.221 174.839 313.564Z" fill="#ACFFE6"/>
<path d="M210.141 331.575C213.803 333.332 218.051 334.357 222.592 334.357C227.132 334.357 231.38 333.479 235.189 331.575C238.997 329.671 242.22 326.889 244.563 323.082C246.907 319.421 248.079 314.882 248.079 309.611V278.129C248.079 276.518 246.761 275.2 245.149 275.2H232.259C230.648 275.2 229.33 276.518 229.33 278.129V309.757C229.33 312.1 228.744 313.857 227.718 315.029C226.693 316.2 225.082 316.639 222.885 316.639C220.687 316.639 219.223 316.054 218.197 315.029C217.172 313.857 216.586 312.1 216.586 309.757V278.129C216.586 276.518 215.268 275.2 213.656 275.2H200.766C199.155 275.2 197.837 276.518 197.837 278.129V309.611C197.837 314.882 198.862 319.421 201.059 323.082C203.403 326.889 206.332 329.818 210.141 331.575ZM203.842 281.057H210.873V309.757C210.873 313.711 211.899 316.786 213.949 318.982C216.147 321.325 219.076 322.496 223.031 322.496C226.839 322.496 229.916 321.325 232.113 318.982C234.31 316.786 235.335 313.564 235.335 309.611V280.911H242.366V309.464C242.366 313.564 241.487 317.079 239.73 319.861C237.972 322.643 235.775 324.693 232.845 326.157C229.916 327.621 226.547 328.354 222.738 328.354C219.076 328.354 215.707 327.621 212.924 326.157C210.141 324.839 207.944 322.789 206.332 319.861C204.721 317.079 203.842 313.564 203.842 309.318V281.057Z" fill="#ACFFE6"/>
<path d="M294.659 305.804C297.003 302.582 298.175 298.775 298.175 294.675C298.175 291.014 297.296 287.646 295.538 284.718C293.78 281.643 291.144 279.3 287.775 277.543C284.406 275.932 280.451 275.054 275.763 275.054H254.085C252.473 275.054 251.155 276.371 251.155 277.982V330.843C251.155 332.454 252.473 333.771 254.085 333.771H266.975C268.586 333.771 269.904 332.454 269.904 330.843V316.786L278.547 332.307C279.132 333.186 280.011 333.771 281.183 333.771H295.685C296.71 333.771 297.735 333.186 298.175 332.307C298.761 331.429 298.761 330.257 298.175 329.379L287.775 311.368C290.558 310.05 292.902 308.293 294.659 305.804ZM289.825 302.436C288.214 304.632 285.871 306.243 282.648 307.268C281.769 307.561 281.037 308.146 280.744 309.025C280.451 309.904 280.451 310.782 280.89 311.514L290.558 328.061H282.794L272.687 309.611C272.102 308.732 271.223 308.146 270.051 308.146H266.975C265.363 308.146 264.045 309.464 264.045 311.075V328.061H257.014V281.057H275.763C279.425 281.057 282.648 281.643 285.138 282.961C287.628 284.132 289.386 285.743 290.558 287.793C291.73 289.843 292.316 292.186 292.316 294.821C292.316 297.604 291.437 300.093 289.825 302.436Z" fill="#ACFFE6"/>
<path d="M275.031 285.889H266.975C265.363 285.889 264.045 287.207 264.045 288.818V301.85C264.045 303.461 265.363 304.779 266.975 304.779H275.031C278.107 304.779 280.597 303.9 282.355 302.143C284.113 300.386 284.992 298.043 284.992 295.114C284.992 292.332 284.113 289.989 282.355 288.232C280.597 286.621 278.107 285.889 275.031 285.889ZM278.254 298.043C277.521 298.775 276.056 298.921 275.031 298.921H269.904V291.746H275.031C276.056 291.746 277.521 291.893 278.254 292.625C278.693 293.064 279.132 293.65 279.132 295.261C279.132 297.164 278.547 297.75 278.254 298.043Z" fill="#ACFFE6"/>
<path d="M320.732 290.575C321.904 290.575 322.637 290.868 323.222 291.307C323.515 291.6 323.955 292.186 324.101 293.211C324.248 294.821 325.42 295.993 327.031 295.993H340.946C341.679 295.993 342.558 295.7 342.997 295.114C343.583 294.529 343.876 293.796 343.73 292.918C343.437 287.061 341.093 282.375 336.845 279.154C332.744 275.932 327.47 274.321 321.025 274.321C314.727 274.321 309.307 275.932 305.352 279.154C301.104 282.521 298.907 287.207 298.907 293.064C298.907 297.018 299.932 300.386 301.837 302.875C303.594 305.364 305.938 307.121 308.428 308.439C310.772 309.611 313.701 310.636 317.217 311.807C319.414 312.539 321.172 313.125 322.344 313.564C323.222 314.004 324.101 314.443 324.687 315.029C324.98 315.175 325.127 315.468 325.127 316.2C325.127 317.079 324.834 317.371 324.541 317.518C323.955 317.957 323.076 318.25 321.904 318.25C320.732 318.25 320 317.957 319.268 317.518C318.682 316.932 318.389 316.2 318.242 314.882C318.096 313.418 316.777 312.246 315.313 312.246H301.544C300.811 312.246 299.932 312.539 299.493 313.125C299.053 313.711 298.614 314.443 298.614 315.321C298.76 319.421 299.932 322.936 302.13 325.864C304.327 328.793 307.11 330.989 310.772 332.454C314.141 333.918 318.096 334.504 322.344 334.504C326.738 334.504 330.693 333.625 333.915 332.014C337.284 330.257 339.921 327.914 341.825 325.132C343.583 322.204 344.608 318.982 344.608 315.321C344.608 311.514 343.583 308.293 341.679 305.804C339.921 303.461 337.577 301.557 335.087 300.386C332.89 299.214 329.961 298.189 326.299 296.871C323.076 295.846 320.732 294.821 319.414 294.089C318.535 293.504 318.389 293.064 318.389 292.625C318.389 291.6 318.682 291.307 318.828 291.307C319.121 291.014 319.561 290.575 320.732 290.575ZM316.484 298.921C318.242 299.946 321.025 301.118 324.541 302.289C327.763 303.461 330.546 304.486 332.451 305.511C334.208 306.389 335.673 307.561 336.991 309.318C338.163 310.782 338.749 312.832 338.749 315.321C338.749 317.811 338.163 320.007 336.845 321.911C335.527 323.961 333.769 325.425 331.425 326.743C328.935 327.914 325.859 328.646 322.344 328.646C318.828 328.646 315.752 328.061 313.115 327.036C310.479 326.011 308.575 324.4 306.963 322.496C306.084 321.325 305.352 319.861 305.059 318.25H313.115C313.555 319.714 314.434 321.032 315.606 322.057C317.363 323.521 319.414 324.4 322.051 324.4C324.687 324.4 326.738 323.814 328.349 322.496C330.107 321.032 331.132 318.982 331.132 316.493C331.132 314.443 330.4 312.539 328.935 311.221C327.763 310.05 326.445 309.171 324.834 308.586C323.369 308 321.611 307.268 319.121 306.536C315.899 305.511 313.262 304.486 311.211 303.607C309.453 302.729 307.989 301.557 306.67 299.8C305.499 298.336 304.913 296.139 304.913 293.504C304.913 289.55 306.231 286.475 309.161 284.279C312.237 281.936 316.191 280.764 321.318 280.764C326.445 280.764 330.546 281.936 333.622 284.279C335.673 285.889 337.138 288.086 337.724 290.721H329.521C329.082 289.404 328.203 288.232 327.177 287.354C325.42 285.889 323.369 285.157 320.879 285.157C318.535 285.157 316.631 285.889 315.166 287.061C313.994 288.086 312.676 289.843 312.676 292.918C312.676 295.114 313.994 297.457 316.484 298.921Z" fill="#ACFFE6"/>
</g>
</g>
<defs>
<filter id="filter0_d_256_561" x="0" y="-28" width="432" height="467" filterUnits="userSpaceOnUse" color-interpolation-filters="sRGB">
<feFlood flood-opacity="0" result="BackgroundImageFix"/>
<feColorMatrix in="SourceAlpha" type="matrix" values="0 0 0 0 0 0 0 0 0 0 0 0 0 0 0 0 0 0 127 0" result="hardAlpha"/>
<feOffset/>
<feGaussianBlur stdDeviation="4"/>
<feColorMatrix type="matrix" values="0 0 0 0 0.2 0 0 0 0 0.616 0 0 0 0 1 0 0 0 1 0"/>
<feBlend mode="normal" in2="BackgroundImageFix" result="effect1_dropShadow_256_561"/>
<feBlend mode="normal" in="SourceGraphic" in2="effect1_dropShadow_256_561" result="shape"/>
</filter>
<clipPath id="clip0_256_561">
<rect width="416" height="449.975" fill="white" transform="translate(8 -20)"/>
</clipPath>
</defs>
</svg>
