<svg width="90" height="90" viewBox="0 0 90 90" fill="none" xmlns="http://www.w3.org/2000/svg">
<g clip-path="url(#clip0_261_59)" filter="url(#filter0_d_261_59)">
<path d="M83.214 42.957C82.9215 42.7041 82.5781 42.5169 82.207 42.4083C81.8359 42.2996 81.4458 42.2719 81.063 42.327L76.5 42.993C76.7943 41.2775 76.9448 39.5405 76.95 37.8C76.95 29.3263 73.5839 21.1997 67.5921 15.2079C61.6003 9.21615 53.4737 5.85 45 5.85C36.5263 5.85 28.3997 9.21615 22.408 15.2079C16.4162 21.1997 13.05 29.3263 13.05 37.8C13.0553 39.5465 13.2058 41.2895 13.5 43.011L8.94601 42.3C8.55972 42.2427 8.1656 42.2699 7.79083 42.3797C7.41606 42.4894 7.06956 42.6792 6.77524 42.9359C6.48093 43.1926 6.24579 43.51 6.08605 43.8664C5.92632 44.2227 5.84579 44.6095 5.85001 45C5.85001 55.3832 9.97473 65.3412 17.3168 72.6832C24.6588 80.0253 34.6168 84.15 45 84.15C55.3832 84.15 65.3412 80.0253 72.6832 72.6832C80.0253 65.3412 84.15 55.3832 84.15 45C84.1499 44.6122 84.0662 44.229 83.9047 43.8765C83.7431 43.524 83.5076 43.2103 83.214 42.957ZM18.45 37.8C18.4438 34.054 19.2304 30.349 20.7582 26.9286C22.2859 23.5082 24.5201 20.4499 27.314 17.9545C30.1079 15.4591 33.3983 13.5832 36.9688 12.45C40.5394 11.3169 44.3093 10.9521 48.0309 11.3798C51.7524 11.8074 55.3414 13.0178 58.5618 14.9313C61.7823 16.8448 64.5614 19.4181 66.7165 22.4822C68.8715 25.5462 70.3538 29.0317 71.0659 32.7094C71.778 36.3872 71.7037 40.174 70.848 43.821L56.448 45.9C55.548 41.589 51.453 39.915 47.394 38.871L47.061 38.781V29.52L47.637 29.691C48.3897 29.9244 49.1263 30.207 49.842 30.537L50.472 30.807L50.562 30.861C50.7936 31.0375 51.0592 31.1641 51.3421 31.2328C51.6251 31.3015 51.9192 31.3107 52.2059 31.26C52.4926 31.2093 52.7657 31.0996 53.0079 30.938C53.2501 30.7764 53.4561 30.5663 53.613 30.321C53.8156 30.0527 53.9591 29.7446 54.0342 29.417C54.1093 29.0893 54.1144 28.7495 54.0489 28.4197C53.9835 28.09 53.8491 27.7778 53.6545 27.5037C53.46 27.2295 53.2097 26.9996 52.92 26.829C51.2595 25.7699 49.3842 25.0936 47.43 24.849L47.061 24.777V23.31C47.061 21.51 45.945 20.7 44.919 20.7C43.893 20.7 42.786 21.519 42.786 23.31V24.426L42.399 24.48C39.789 24.885 33.66 26.46 33.12 32.499C32.355 39.267 37.089 40.878 42.426 42.048L42.786 42.129V47.403L19.161 43.857C18.6893 41.8725 18.4507 39.8398 18.45 37.8ZM42.75 37.935L42.156 37.746C40.059 37.071 37.818 36.144 37.818 33.651C37.818 31.158 39.303 29.763 42.219 29.268L42.75 29.178V37.935ZM51.39 46.665L47.025 47.304V43.524L47.574 43.65C48.4187 43.7858 49.2151 44.1336 49.8887 44.6609C50.5624 45.1882 51.0913 45.8777 51.426 46.665H51.39ZM45 78.75C36.5966 78.7406 28.4982 75.6008 22.2847 69.9431C16.0712 64.2854 12.1885 56.5157 11.394 48.15L44.154 53.1C44.4138 53.136 44.6773 53.136 44.937 53.1L78.606 48.168C77.8073 56.5305 73.9228 64.2958 67.7097 69.9498C61.4967 75.6038 53.4006 78.7411 45 78.75Z" fill="#D0EEFF"/>
</g>
<defs>
<filter id="filter0_d_261_59" x="-8" y="-8" width="106" height="106" filterUnits="userSpaceOnUse" color-interpolation-filters="sRGB">
<feFlood flood-opacity="0" result="BackgroundImageFix"/>
<feColorMatrix in="SourceAlpha" type="matrix" values="0 0 0 0 0 0 0 0 0 0 0 0 0 0 0 0 0 0 127 0" result="hardAlpha"/>
<feOffset/>
<feGaussianBlur stdDeviation="4"/>
<feColorMatrix type="matrix" values="0 0 0 0 0.2 0 0 0 0 0.616 0 0 0 0 1 0 0 0 1 0"/>
<feBlend mode="normal" in2="BackgroundImageFix" result="effect1_dropShadow_261_59"/>
<feBlend mode="normal" in="SourceGraphic" in2="effect1_dropShadow_261_59" result="shape"/>
</filter>
<clipPath id="clip0_261_59">
<rect width="90" height="90" fill="white"/>
</clipPath>
</defs>
</svg>
