<svg width="90" height="90" viewBox="0 0 90 90" fill="none" xmlns="http://www.w3.org/2000/svg">
<g clip-path="url(#clip0_261_48)" filter="url(#filter0_d_261_48)">
<path d="M83.214 44.307C82.9215 44.0541 82.578 43.8669 82.2069 43.7583C81.8358 43.6496 81.4457 43.6218 81.063 43.677L70.551 45.216L75.483 40.284C76.9361 38.8264 77.7521 36.8522 77.7521 34.794C77.7521 32.7358 76.9361 30.7616 75.483 29.304L55.683 9.504C54.2254 8.05088 52.2512 7.23491 50.193 7.23491C48.1348 7.23491 46.1606 8.05088 44.703 9.504L15.48 38.646C14.7588 39.3683 14.1872 40.2259 13.798 41.1695C13.4088 42.1131 13.2097 43.1243 13.212 44.145C13.212 44.199 13.212 44.262 13.212 44.325L8.93698 43.677C8.55069 43.6197 8.15656 43.6469 7.78179 43.7567C7.40702 43.8664 7.06053 44.0562 6.76621 44.3129C6.47189 44.5696 6.23676 44.887 6.07702 45.2434C5.91728 45.5997 5.83675 45.9865 5.84098 46.377C5.84098 56.7602 9.9657 66.7182 17.3077 74.0602C24.6498 81.4023 34.6078 85.527 44.991 85.527C55.3742 85.527 65.3322 81.4023 72.6742 74.0602C80.0163 66.7182 84.141 56.7602 84.141 46.377C84.1458 45.9854 84.0654 45.5974 83.9054 45.2399C83.7453 44.8825 83.5094 44.5642 83.214 44.307ZM58.176 19.629L71.676 33.129C72.1157 33.575 72.3615 34.1767 72.36 34.803C72.3622 35.1134 72.3029 35.4211 72.1855 35.7085C72.0681 35.9958 71.8949 36.257 71.676 36.477L61.605 46.53L44.559 49.023L30.843 46.962L58.176 19.629ZM18.576 44.145C18.5734 43.8338 18.6334 43.5252 18.7525 43.2376C18.8715 42.95 19.0472 42.6893 19.269 42.471L48.483 13.284C48.703 13.065 48.9642 12.8919 49.2515 12.7745C49.5388 12.6571 49.8466 12.5978 50.157 12.6C50.7833 12.5984 51.3849 12.8443 51.831 13.284L53.289 14.742L22.338 45.693L18.9 45.162C18.7271 44.8496 18.6285 44.5016 18.612 44.145H18.576ZM45 80.1C36.5966 80.0906 28.4981 76.9508 22.2847 71.2931C16.0712 65.6354 12.1884 57.8657 11.394 49.5L44.154 54.414C44.4137 54.45 44.6772 54.45 44.937 54.414L78.606 49.5C77.8115 57.8657 73.9288 65.6354 67.7153 71.2931C61.5018 76.9508 53.4034 80.0906 45 80.1Z" fill="#D0EEFF"/>
<path d="M59.1301 40.905C59.6359 41.4115 60.3222 41.6964 61.0381 41.697C61.7539 41.6964 62.4402 41.4115 62.9461 40.905L66.6901 37.161C67.167 36.6492 67.4266 35.9722 67.4143 35.2727C67.402 34.5732 67.1186 33.9058 66.6239 33.4112C66.1292 32.9165 65.4618 32.6331 64.7623 32.6208C64.0629 32.6084 63.3859 32.8681 62.8741 33.345L59.1301 37.08C58.8784 37.3308 58.6786 37.6289 58.5424 37.9571C58.4061 38.2853 58.3359 38.6371 58.3359 38.9925C58.3359 39.3479 58.4061 39.6997 58.5424 40.0279C58.6786 40.3561 58.8784 40.6542 59.1301 40.905Z" fill="#D0EEFF"/>
<path d="M58.1761 32.4C58.892 32.3994 59.5783 32.1145 60.0841 31.608L60.6151 31.077C61.092 30.5652 61.3517 29.8882 61.3393 29.1887C61.327 28.4892 61.0436 27.8218 60.549 27.3272C60.0543 26.8325 59.3869 26.5491 58.6874 26.5368C57.9879 26.5244 57.3109 26.7841 56.7991 27.261L56.2591 27.792C55.8814 28.1701 55.6245 28.6518 55.5208 29.1761C55.4171 29.7004 55.4713 30.2436 55.6766 30.7371C55.8819 31.2305 56.229 31.6519 56.6739 31.948C57.1189 32.244 57.6417 32.4013 58.1761 32.4Z" fill="#D0EEFF"/>
</g>
<defs>
<filter id="filter0_d_261_48" x="-8" y="-8" width="106" height="106" filterUnits="userSpaceOnUse" color-interpolation-filters="sRGB">
<feFlood flood-opacity="0" result="BackgroundImageFix"/>
<feColorMatrix in="SourceAlpha" type="matrix" values="0 0 0 0 0 0 0 0 0 0 0 0 0 0 0 0 0 0 127 0" result="hardAlpha"/>
<feOffset/>
<feGaussianBlur stdDeviation="4"/>
<feColorMatrix type="matrix" values="0 0 0 0 0.2 0 0 0 0 0.616 0 0 0 0 1 0 0 0 1 0"/>
<feBlend mode="normal" in2="BackgroundImageFix" result="effect1_dropShadow_261_48"/>
<feBlend mode="normal" in="SourceGraphic" in2="effect1_dropShadow_261_48" result="shape"/>
</filter>
<clipPath id="clip0_261_48">
<rect width="90" height="90" fill="white"/>
</clipPath>
</defs>
</svg>
