<svg width="90" height="90" viewBox="0 0 90 90" fill="none" xmlns="http://www.w3.org/2000/svg">
<g clip-path="url(#clip0_261_136)" filter="url(#filter0_d_261_136)">
<path d="M81.4501 42.3C80.734 42.3 80.0473 42.5845 79.5409 43.0908C79.0346 43.5972 78.7501 44.2839 78.7501 45C78.7501 51.6751 76.7707 58.2003 73.0622 63.7505C69.3537 69.3007 64.0827 73.6265 57.9157 76.1809C51.7487 78.7354 44.9627 79.4038 38.4158 78.1015C31.869 76.7993 25.8553 73.5849 21.1353 68.8649C16.4152 64.1448 13.2009 58.1312 11.8986 51.5843C10.5964 45.0374 11.2647 38.2514 13.8192 32.0844C16.3736 25.9174 20.6995 20.6464 26.2496 16.9379C31.7998 13.2294 38.325 11.25 45.0001 11.25C45.7162 11.25 46.403 10.9655 46.9093 10.4592C47.4156 9.95284 47.7001 9.26608 47.7001 8.55C47.7001 7.83391 47.4156 7.14716 46.9093 6.64081C46.403 6.13446 45.7162 5.85 45.0001 5.85C37.257 5.85 29.6877 8.14611 23.2495 12.448C16.8114 16.7498 11.7934 22.8642 8.83023 30.0179C5.86706 37.1717 5.09176 45.0434 6.60237 52.6378C8.11298 60.2321 11.8417 67.208 17.3169 72.6832C22.7921 78.1585 29.768 81.8871 37.3623 83.3977C44.9567 84.9084 52.8284 84.1331 59.9822 81.1699C67.1359 78.2067 73.2503 73.1888 77.5522 66.7506C81.854 60.3124 84.1501 52.7431 84.1501 45C84.1501 44.2839 83.8657 43.5972 83.3593 43.0908C82.853 42.5845 82.1662 42.3 81.4501 42.3Z" fill="#D0EEFF"/>
<path d="M28.4309 61.569L43.8479 57.897L80.2529 21.501L82.0529 19.701C85.0229 16.731 84.7529 11.682 81.5579 8.442C78.3629 5.202 73.2689 4.986 70.2989 7.947L32.1029 46.152L28.4309 61.569ZM74.1329 11.754C74.9789 10.908 76.6349 11.142 77.7329 12.249C78.8309 13.356 79.0739 15.021 78.2279 15.849L76.4279 17.649L72.3149 13.536L74.1329 11.754ZM36.9989 48.888L68.4989 17.388L72.6209 21.51L41.1209 53.01L35.7209 54.297L36.9989 48.888Z" fill="#D0EEFF"/>
</g>
<defs>
<filter id="filter0_d_261_136" x="-8" y="-8" width="106" height="106" filterUnits="userSpaceOnUse" color-interpolation-filters="sRGB">
<feFlood flood-opacity="0" result="BackgroundImageFix"/>
<feColorMatrix in="SourceAlpha" type="matrix" values="0 0 0 0 0 0 0 0 0 0 0 0 0 0 0 0 0 0 127 0" result="hardAlpha"/>
<feOffset/>
<feGaussianBlur stdDeviation="4"/>
<feColorMatrix type="matrix" values="0 0 0 0 0.2 0 0 0 0 0.616 0 0 0 0 1 0 0 0 1 0"/>
<feBlend mode="normal" in2="BackgroundImageFix" result="effect1_dropShadow_261_136"/>
<feBlend mode="normal" in="SourceGraphic" in2="effect1_dropShadow_261_136" result="shape"/>
</filter>
<clipPath id="clip0_261_136">
<rect width="90" height="90" fill="white"/>
</clipPath>
</defs>
</svg>
